M48
;DRILL file {KiCad 4.0.5} date 03/07/17 17:44:43
;FORMAT={-:-/ absolute / metric / decimal}
FMAT,2
METRIC,TZ
T1C0.400
T2C0.800
T3C1.016
T4C1.400
T5C3.200
%
G90
G05
M71
T1
X22.25Y-24.5
X23.75Y-21.
X26.75Y-24.75
X32.75Y-26.75
X35.5Y-34.
X35.5Y-37.
X36.25Y-41.75
X36.25Y-48.
X36.5Y-34.75
X36.625Y-55.875
X37.75Y-31.5
X38.5Y-39.5
X39.25Y-38.75
X40.Y-44.25
X40.75Y-43.5
X42.Y-26.75
X43.25Y-29.5
X44.25Y-39.5
X44.375Y-61.625
X46.Y-30.5
X46.25Y-43.
X47.75Y-24.75
X47.75Y-38.5
X47.75Y-40.5
X49.Y-29.25
X49.Y-41.25
X49.75Y-33.
X50.Y-41.25
X51.5Y-36.5
X53.5Y-36.5
X54.Y-31.25
X55.75Y-39.25
X56.5Y-56.
X57.75Y-26.5
X58.25Y-53.5
X64.25Y-22.25
X67.Y-60.
T2
X23.75Y-65.75
X26.25Y-65.75
X49.125Y-52.125
X49.125Y-55.625
X49.125Y-63.375
X49.125Y-66.875
X65.Y-66.25
X65.25Y-51.
X67.5Y-66.25
X67.75Y-51.
T3
X23.71Y-43.8
X23.71Y-46.34
X23.71Y-48.88
X23.71Y-51.42
X23.71Y-53.96
X23.71Y-56.5
X26.25Y-43.8
X26.25Y-46.34
X26.25Y-48.88
X26.25Y-51.42
X26.25Y-53.96
X26.25Y-56.5
X31.25Y-64.75
X31.25Y-67.29
T4
X23.25Y-29.75
X23.25Y-34.75
T5
X45.Y-46.5
T0
M30
